<?xml version="1.0" standalone="no"?>
<!DOCTYPE svg PUBLIC "-//W3C//DTD SVG 20010904//EN"
 "http://www.w3.org/TR/2001/REC-SVG-20010904/DTD/svg10.dtd">
<svg version="1.0" xmlns="http://www.w3.org/2000/svg"
 width="200pt" height="100pt" viewBox="0 0 3732.000000 2519.000000"
 preserveAspectRatio="xMidYMid meet">
<metadata>
Created by potrace 1.16, written by Peter Selinger 2001-2019
</metadata>
<g transform="translate(0.000000,2519.000000) scale(0.100000,-0.100000)"
fill="#102a42" stroke="none" strokeWidth="20px">
<path d="M0 12595 l0 -12598 227 6 c1438 37 2976 752 4588 2132 542 464 1227
1141 1797 1775 1635 1819 3342 4214 5464 7662 l312 507 53 -87 c2359 -3874
4263 -6529 6068 -8462 351 -376 934 -943 1301 -1266 1362 -1199 2666 -1920
3921 -2168 390 -78 657 -101 1087 -93 499 9 873 65 1354 203 2749 787 5694
3754 9357 9427 610 945 1730 2750 1778 2866 10 24 14 60 11 116 -3 73 -7 88
-37 136 -19 30 -125 203 -236 384 -1122 1839 -2029 3239 -2928 4525 -1941
2773 -3671 4710 -5302 5937 -910 684 -1777 1139 -2649 1389 -295 84 -566 139
-896 180 -180 22 -717 31 -917 15 -1222 -98 -2439 -619 -3748 -1605 -537 -404
-1025 -835 -1630 -1441 -1860 -1860 -3824 -4526 -6285 -8530 -108 -176 -220
-360 -249 -408 l-53 -88 -33 53 c-18 29 -147 240 -287 468 -2233 3639 -4105
6226 -5833 8060 -261 276 -809 819 -1040 1030 -1099 999 -2115 1672 -3135
2075 -460 182 -987 315 -1465 370 -77 9 -242 19 -367 22 l-228 6 0 -12598z
m25131 12049 c1244 -118 2557 -763 3944 -1938 553 -468 1225 -1129 1816 -1786
1483 -1647 3084 -3865 4971 -6884 398 -636 881 -1426 881 -1441 0 -11 -115
-200 -492 -813 -2185 -3552 -3972 -6025 -5670 -7852 -212 -227 -829 -842
-1031 -1026 -549 -501 -1008 -868 -1497 -1197 -994 -670 -1894 -1037 -2828
-1153 -177 -22 -654 -30 -838 -15 -1645 138 -3344 1145 -5256 3115 -1742 1795
-3660 4425 -5969 8184 -371 603 -455 744 -455 757 0 13 84 154 455 757 2312
3764 4225 6386 5974 8189 1793 1848 3416 2855 4967 3079 285 41 736 52 1028
24z m-24226 -65 c1162 -220 2397 -904 3700 -2049 2113 -1855 4432 -4929 7359
-9753 60 -97 106 -183 103 -190 -20 -53 -892 -1461 -1344 -2172 -3484 -5474
-6259 -8470 -8803 -9502 -401 -163 -888 -295 -1277 -346 l-103 -14 0 12042 0
12042 103 -14 c56 -7 174 -27 262 -44z"/>
</g>
</svg>
